# xmcd CD database file
# Copyright (C) 1993-1996 Ti Kan
#
# Track frame offsets:
# 150
# 12415
# 27465
# 42397
# 53972
# 65895
# 82720
# 94825
# 108279
# 120442
# 135317
# 148412
# 161055
# 172990
#
# Disc length: 2515 seconds
#
# Revision: 0
# Processed by: cddbd v1.4b41PL1 Copyright (c) Steve Scherf et al.
# Submitted via: inCDius 1.1b5
#
DISCID=bd09d10e
DTITLE=Roy Clark - Roy Clark Greatest Hits
DYEAR=1900
DGENRE=
TTITLE0=Tips Of My Fingers
TTITLE1=Yesterday, When I Was Young
TTITLE2=Right Or Left At Oak Street
TTITLE3=I Never Picked Cotton
TTITLE4=Thank God And Greyhound
TTITLE5=Magnificent Sanctuary Band
TTITLE6=The Lawrence Welk- Hee Haw Counter- Revolution Polka
TTITLE7=Come Live With Me
TTITLE8=Riders In The Sky
TTITLE9=Somewhere Between Love And Tomorrow
TTITLE10=Honeymoon Feelin'
TTITLE11=Heart To Heart
TTITLE12=If I Had To Do It All Over Again
TTITLE13=Think Summer
EXTD=
EXTT0=
EXTT1=
EXTT2=
EXTT3=
EXTT4=
EXTT5=
EXTT6=
EXTT7=
EXTT8=
EXTT9=
EXTT10=
EXTT11=
EXTT12=
EXTT13=
PLAYORDER=
